# xmcd
#
# Track frame offsets:
#	150
#	13499
#	31208
#	45368
#	60971
#	75844
#	90941
#	105251
#	119558
#	136219
#	152909
#	181457
#	194853
#	211398
#
# Disc length: 3040 seconds
# Revision: 0
# Processed by: cddbd v1.5.2PL0 Copyright (c) Steve Scherf et al.
# Submitted via: dBpowerAMP V12.0
#
DISCID=af0bde0e
DTITLE=Gregory Isaacs - Slum In Dub
DYEAR=1978
DGENRE=Dub
TTITLE0=Public Eyes
TTITLE1=Slum
TTITLE2=Reform Institution
TTITLE3=Crofs
TTITLE4=Tam Tam
TTITLE5=Also
TTITLE6=Nigger
TTITLE7=Leaving
TTITLE8=Leggo Beast
TTITLE9=Embarrassment
TTITLE10=Jailer
TTITLE11=Chilout
TTITLE12=Wanted
TTITLE13=Interrogation
EXTD=
EXTT0=
EXTT1=
EXTT2=
EXTT3=
EXTT4=
EXTT5=
EXTT6=
EXTT7=
EXTT8=
EXTT9=
EXTT10=
EXTT11=
EXTT12=
EXTT13=
PLAYORDER=
